<svg xmlns="http://www.w3.org/2000/svg" viewBox="0 0 360 180" preserveAspectRatio="none" role="img" aria-label="World landmasses">
  <title>World landmasses</title>
  <desc>Natural Earth 1:110m land polygons, public domain, projected equirectangularly.</desc>
  <path fill="#123238" fill-opacity=".88" stroke="#2f6261" stroke-opacity=".72" stroke-width=".35" fill-rule="evenodd" d="M120.428,170.040L120.134,170.550L119.840,171.000L117.745,170.863L115.512,170.922L114.258,170.589L114.258,170.550L113.710,170.256L115.962,170.295L118.117,170.393L118.861,169.981L119.390,169.629L120.428,170.040Z M20.792,169.497L18.872,169.634L17.560,169.281L16.973,168.929L16.933,168.870L16.287,168.596L16.287,168.596L16.894,168.223L18.755,168.380L19.754,168.694L20.518,169.046L20.792,169.497Z M134.845,168.047L136.079,168.478L136.510,169.086L136.628,169.517L136.667,170.026L135.119,170.340L133.494,170.594L131.614,170.829L129.518,171.025L127.148,170.967L125.836,170.634L126.012,170.222L128.147,169.948L129.009,169.615L129.635,169.183L130.086,168.811L130.693,168.459L131.339,168.047L131.339,168.047L131.849,168.047L133.337,167.831L134.845,168.047Z M58.788,163.501L60.081,163.658L61.276,163.481L60.708,163.834L59.768,164.089L58.377,164.010L57.378,163.658L57.378,163.658L57.594,163.325L58.788,163.501Z M54.440,163.481L55.968,163.873L55.381,163.834L54.088,163.736L52.717,163.462L52.717,163.462L53.442,163.246L54.440,163.481Z M81.018,161.933L82.115,162.071L83.212,161.953L83.800,162.521L83.016,162.443L81.802,162.482L80.568,162.443L79.217,162.502L78.198,162.306L77.669,161.894L77.669,161.894L78.296,161.718L79.569,161.855L81.018,161.933Z M111.549,160.956L111.666,161.406L111.490,161.798L111.216,162.171L110.041,162.308L108.924,162.504L107.612,162.484L108.102,162.092L106.926,162.229L105.810,162.367L105.046,162.073L104.987,161.661L106.084,161.269L106.084,161.269L106.770,161.152L107.925,161.191L108.219,160.681L108.278,160.309L108.258,159.506L108.826,159.035L109.747,158.879L110.276,159.251L110.511,159.623L110.941,160.074L111.274,160.505L111.549,160.956Z M121.386,154.152L120.955,154.368L120.211,154.211L119.388,154.309L118.703,154.544L117.978,154.799L117.488,155.093L117.351,155.485L117.410,155.857L117.880,156.190L117.194,156.426L116.254,156.504L115.706,156.837L115.118,157.150L114.492,157.582L114.335,157.954L114.687,158.365L115.216,158.679L116.039,158.914L116.803,159.228L117.214,159.619L117.429,159.992L117.723,160.384L118.193,160.717L118.487,161.089L118.624,162.010L118.918,162.382L118.996,162.774L119.310,163.166L119.173,163.695L118.624,164.107L118.037,164.440L116.705,164.577L116.254,164.930L115.647,165.263L114.139,165.635L112.807,165.792L111.554,166.007L110.202,166.223L109.399,166.634L107.793,166.674L106.030,166.634L104.444,166.713L102.760,166.713L103.073,167.105L104.601,167.281L105.717,167.555L106.344,167.908L105.227,168.222L103.504,168.124L102.074,168.378L102.015,168.790L101.976,169.182L103.151,169.515L103.367,169.887L104.640,170.260L106.755,170.416L108.557,170.691L109.987,171.004L111.808,171.318L114.296,171.474L116.744,171.749L118.448,172.043L120.309,172.376L121.288,172.846L121.778,173.218L122.992,172.866L124.637,172.572L126.380,172.258L128.456,172.004L130.239,171.729L132.726,171.710L135.174,171.847L137.192,172.082L137.838,171.651L139.229,171.357L141.755,171.337L143.733,171.122L145.614,170.906L147.690,170.769L149.903,170.593L151.450,170.338L150.745,169.985L150.314,169.633L150.314,169.260L148.375,169.299L146.319,169.456L144.360,169.456L144.086,169.084L144.223,168.339L144.673,168.124L146.103,167.889L147.788,167.653L149.002,167.360L150.216,167.066L151.117,166.674L152.488,166.497L153.840,166.360L154.525,166.282L156.072,166.243L157.541,166.105L158.775,165.909L159.990,165.674L161.086,165.439L162.477,165.126L163.358,164.793L164.299,164.499L164.592,164.107L163.535,163.872L163.887,163.460L164.553,163.147L165.591,162.951L166.688,162.715L167.706,162.402L168.490,162.010L168.980,161.540L169.704,161.265L170.899,161.324L171.389,161.657L172.583,161.697L172.623,161.324L173.132,160.932L174.209,161.030L174.464,161.403L175.658,161.461L176.951,161.285L178.205,161.167L179.341,161.226L179.771,161.638L180.868,161.305L181.887,161.128L183.023,160.991L184.139,160.854L185.158,160.619L186.274,160.462L187.136,160.247L187.743,159.894L188.487,160.149L189.525,160.011L190.250,160.482L190.818,160.834L191.954,160.638L192.404,160.247L193.423,159.972L194.735,160.031L195.127,160.403L195.949,160.031L197.027,159.913L198.202,159.874L199.259,159.894L200.376,160.011L201.453,160.070L201.923,160.403L202.569,160.697L203.666,160.521L204.841,160.482L205.977,160.482L207.094,160.462L208.093,160.325L209.150,160.207L210.032,159.933L210.972,159.757L211.990,159.659L212.754,159.384L213.302,158.836L213.870,158.503L214.908,158.659L215.300,159.012L216.162,159.247L217.200,159.169L217.905,159.521L218.649,159.776L219.668,159.541L220.020,159.110L220.921,158.934L221.959,158.601L222.939,158.463L224.114,158.267L224.897,158.052L225.720,157.817L226.503,157.601L227.443,157.719L228.344,157.366L228.991,157.092L229.931,157.111L230.753,156.876L230.949,156.523L231.792,156.249L232.614,156.053L233.613,155.896L234.534,155.818L235.415,155.877L236.355,155.975L237.158,156.249L237.256,156.680L238.137,157.013L238.745,157.288L239.939,157.405L240.605,157.680L241.428,157.954L242.387,158.013L243.190,157.817L244.052,157.405L244.992,157.621L245.972,157.738L246.912,157.856L247.891,157.934L248.890,157.934L249.713,158.973L249.673,159.228L249.556,159.678L248.596,159.933L247.813,160.305L247.950,160.697L249.066,160.678L248.929,161.069L248.420,161.442L247.950,161.853L248.714,162.167L249.869,162.265L251.025,162.088L251.573,161.697L251.906,161.324L252.455,161.011L253.081,160.717L253.336,160.364L253.865,159.874L254.492,159.776L255.628,159.737L256.626,159.619L257.645,159.463L258.135,159.071L258.428,158.698L259.114,158.326L260.093,158.072L260.935,157.876L261.484,157.542L262.052,157.366L262.776,157.209L263.775,157.307L264.676,157.209L265.656,157.092L266.752,157.150L267.477,156.876L267.986,156.210L268.358,156.484L268.828,156.955L269.671,157.150L270.630,157.229L271.590,157.111L272.609,157.190L273.549,157.209L274.175,157.111L275.018,157.170L275.781,157.386L276.682,157.249L277.760,157.249L278.680,157.111L279.718,157.249L280.384,156.915L280.893,156.582L281.579,156.308L282.832,155.563L283.479,155.700L284.243,155.975L284.908,156.328L286.182,156.935L287.161,156.955L288.081,156.955L289.159,156.837L290.236,156.700L291.058,156.426L291.744,156.132L292.860,156.092L293.605,155.877L294.388,156.073L294.897,156.386L295.602,156.700L296.699,156.661L297.385,156.915L298.579,157.170L299.833,157.268L300.871,157.190L301.654,156.876L302.320,156.563L303.221,156.484L304.122,156.621L305.160,156.719L306.100,156.563L307.001,156.563L307.883,156.661L308.803,156.759L309.704,156.582L310.781,156.426L311.800,156.386L312.936,156.386L313.856,156.288L314.757,156.210L315.032,155.720L315.071,155.309L315.697,155.583L315.874,156.034L316.207,156.445L316.618,156.778L317.460,156.955L318.596,156.896L319.908,156.876L320.809,156.817L322.122,156.817L323.062,156.798L324.374,156.837L325.490,156.915L326.196,157.229L326.000,157.601L326.646,157.895L327.723,158.130L328.840,158.385L330.132,158.561L331.484,158.718L332.502,158.875L333.638,158.895L334.285,158.561L335.166,158.836L335.930,159.149L336.811,159.384L338.026,159.482L339.181,159.600L339.671,159.992L340.807,160.227L341.570,160.580L342.687,160.736L343.842,160.717L344.920,160.776L346.114,160.756L347.309,160.834L348.426,160.971L349.464,161.207L350.502,161.403L351.207,161.697L351.089,162.088L350.560,162.441L350.110,162.892L349.757,163.245L349.287,163.656L347.975,163.813L347.387,164.165L346.095,164.381L345.644,164.773L344.959,165.145L344.234,165.459L343.823,165.870L343.568,166.243L343.470,166.693L343.490,167.066L344.058,167.457L344.273,167.830L344.743,168.183L346.604,168.320L346.996,168.751L345.194,168.907L343.666,169.123L341.766,169.162L340.924,169.730L340.748,170.201L340.317,170.573L339.788,170.945L341.120,171.279L341.629,171.690L342.491,172.062L343.705,172.395L345.096,172.709L346.604,173.022L348.896,173.336L349.405,173.826L352.284,174.041L352.477,174.118L353.224,174.414L355.986,174.159L358.277,174.473L360.000,174.713L360.000,180.000L0.000,180.000L0.000,174.713L0.058,174.721L0.941,174.139L2.743,174.453L2.859,174.418L3.138,174.334L3.476,174.232L3.770,174.143L3.915,174.099L4.066,174.102L4.170,174.118L5.617,174.534L6.883,174.118L7.111,174.061L10.049,173.885L11.000,174.118L11.470,174.237L12.978,174.570L15.818,174.825L18.070,175.139L21.929,175.374L24.808,175.100L29.058,175.296L31.467,175.609L34.111,175.315L36.892,175.041L37.108,174.570L33.171,174.531L29.939,174.296L29.097,173.904L26.414,173.689L26.590,173.238L26.962,172.827L27.334,172.454L27.138,172.043L25.474,171.768L24.710,171.416L23.163,171.102L25.591,171.161L27.902,171.004L29.352,171.337L31.134,171.043L32.779,170.671L33.582,170.338L33.230,169.926L31.937,169.652L30.468,169.358L28.412,169.299L26.610,169.162L24.671,169.064L24.024,168.692L22.732,168.378L21.948,168.026L21.635,166.889L22.125,166.987L23.025,167.301L24.671,167.203L26.257,167.066L27.080,167.497L28.666,167.399L29.998,167.183L31.252,166.909L32.388,166.576L33.896,166.478L33.856,166.105L33.504,165.733L33.798,165.380L35.090,165.204L35.678,165.537L37.206,165.341L38.361,165.086L39.791,165.067L41.142,164.969L42.494,164.734L43.571,164.518L44.785,164.303L45.569,164.361L46.254,164.440L47.743,164.303L49.075,164.479L50.446,164.459L51.758,164.322L53.109,164.420L54.598,164.518L55.989,164.479L57.438,164.499L58.926,164.518L60.297,164.479L61.316,164.185L62.530,164.028L63.784,164.244L64.978,164.068L66.056,163.715L66.702,164.028L67.055,164.381L67.701,164.714L68.739,164.420L69.934,164.793L71.285,164.910L72.441,165.184L73.851,165.126L75.124,164.949L76.632,164.988L77.983,165.126L79.354,165.302L79.883,164.871L79.237,164.538L78.747,164.185L77.455,164.107L76.887,163.734L76.671,163.362L76.319,162.618L77.083,162.755L78.395,162.813L79.687,162.755L80.863,162.911L81.881,163.205L82.312,163.558L83.663,163.617L84.956,163.480L86.327,163.284L87.561,163.166L88.579,163.401L89.911,163.323L90.773,162.559L91.576,163.009L92.732,163.186L93.985,163.088L94.808,163.480L96.120,163.519L97.334,163.636L98.529,163.852L99.313,163.480L99.704,163.127L100.703,163.519L102.074,163.421L103.093,163.636L103.778,163.970L105.110,163.872L106.148,163.656L107.166,163.401L108.381,163.264L109.791,163.147L111.064,163.009L112.043,162.794L112.631,162.480L112.866,162.049L112.748,161.638L112.435,161.246L112.083,160.854L111.769,160.462L111.515,160.109L111.456,159.717L111.554,159.326L112.024,158.953L112.415,158.542L112.572,158.150L112.376,157.719L112.259,157.327L112.748,156.876L113.297,156.582L113.943,156.210L114.629,155.896L115.432,155.603L115.823,155.171L116.372,154.897L116.999,154.642L117.958,154.584L118.585,154.270L119.290,154.074L120.113,153.957L120.837,153.702L121.405,153.388L122.189,153.271L122.776,153.525L122.404,153.859L121.386,154.152Z M112.250,143.850L113.550,144.450L114.950,144.700L114.500,145.200L113.550,145.250L113.040,144.897L112.709,145.301L111.851,145.612L110.768,145.499L110.042,145.198L108.994,145.054L107.736,144.495L106.715,143.958L105.337,142.837L106.162,143.047L107.566,143.715L108.892,144.074L109.408,143.616L109.733,142.931L110.654,142.518L111.366,142.636L111.366,142.636L111.750,143.100L112.250,143.850Z M121.450,141.100L122.250,141.550L121.950,141.900L120.600,142.200L120.150,141.850L119.300,142.300L118.800,141.850L120.000,141.250L120.850,141.500L121.450,141.100Z M250.280,139.710L248.745,139.775L248.720,139.243L248.868,138.830L248.935,138.625L249.580,138.940L250.525,139.065L250.560,139.255L250.280,139.710Z M325.398,130.793L326.364,131.138L326.909,131.001L327.689,130.808L328.289,130.875L328.360,132.062L328.017,132.407L327.914,133.212L327.565,132.938L326.870,133.635L326.663,133.581L326.048,133.550L325.432,132.694L325.295,132.034L324.718,131.163L324.744,130.704L325.398,130.793Z M353.020,130.919L353.247,131.332L353.958,130.927L354.248,131.349L354.249,131.770L353.876,132.233L353.223,132.970L352.711,133.372L353.080,133.853L352.309,133.866L351.453,134.243L351.185,134.897L350.617,135.909L349.831,136.356L349.332,136.641L348.411,136.620L347.764,136.290L346.677,136.220L346.509,135.853L347.046,135.111L348.304,134.124L348.949,133.936L349.668,133.555L350.525,133.032L351.125,132.513L351.570,131.767L351.949,131.514L352.097,130.956L352.799,130.494L353.020,130.919Z M354.612,126.156L355.337,127.209L355.358,126.526L355.809,126.799L355.958,127.555L356.763,127.881L357.439,127.961L358.010,127.580L358.517,127.695L358.275,128.583L357.970,129.166L357.207,129.146L356.940,129.450L357.033,129.880L356.886,130.066L356.508,130.605L356.012,131.290L355.240,131.688L355.068,131.426L354.651,131.282L355.228,130.459L354.900,129.909L353.824,129.509L353.852,129.147L354.575,128.798L354.743,128.028L354.697,127.381L354.292,126.711L354.319,126.535L353.841,126.122L353.054,125.237L352.636,124.529L353.007,124.451L353.551,125.006L354.329,125.265L354.612,126.156Z M347.120,112.160L346.740,112.400L346.190,112.130L345.474,111.680L344.830,111.150L344.168,110.445L344.030,110.106L344.460,110.120L345.020,110.460L345.460,110.800L345.780,111.080L346.600,111.700L347.120,112.160Z M358.374,107.340L358.718,107.628L358.553,108.151L357.933,108.288L357.381,108.164L357.285,107.725L357.671,107.381L358.126,107.505L358.374,107.340Z M359.364,106.801L358.725,107.012L358.597,106.639L359.097,106.434L359.414,106.379L360.000,106.067L360.000,106.555L359.364,106.801Z M0.083,106.502L0.000,106.555L0.000,106.067L0.207,106.021L0.083,106.502Z M347.845,106.466L347.515,106.598L347.180,106.160L347.217,105.892L347.845,106.466Z M347.108,104.934L347.270,105.740L347.001,105.615L346.793,105.669L346.650,105.393L346.629,104.626L347.108,104.934Z M230.057,103.556L230.217,104.759L230.477,105.227L230.377,105.706L230.200,106.000L229.861,105.414L229.673,105.710L229.863,106.451L229.775,106.875L229.499,107.106L229.436,107.953L229.042,109.119L228.549,110.497L227.931,112.392L227.548,113.782L227.096,114.942L226.282,115.178L225.410,115.601L224.834,115.346L224.040,114.988L223.764,114.461L223.698,113.574L223.346,112.777L223.254,112.057L223.433,111.336L223.894,111.163L223.896,110.830L224.374,110.072L224.464,109.435L224.232,108.962L224.043,108.331L223.963,107.410L224.312,106.850L224.447,106.216L224.945,106.179L225.503,105.974L225.873,105.793L226.312,105.780L226.882,105.210L227.705,104.594L228.005,104.091L227.869,103.664L228.294,103.784L228.845,103.089L228.864,102.488L229.195,102.041L229.544,102.470L229.809,102.895L230.057,103.556Z M323.562,103.764L323.922,104.548L324.564,104.171L324.895,104.594L325.375,104.985L325.272,105.428L325.485,106.286L325.637,106.785L325.889,106.907L326.160,107.762L326.064,108.280L326.387,108.958L327.471,109.481L328.178,109.956L328.848,110.391L328.717,110.633L329.289,111.261L329.678,112.343L330.077,112.123L330.483,112.556L330.727,112.402L330.900,113.462L331.609,114.076L332.074,114.458L332.855,115.268L333.136,116.071L333.162,116.641L333.093,117.260L333.569,118.110L333.512,118.995L333.339,119.458L333.069,120.350L333.090,120.924L332.892,121.640L332.450,122.550L331.709,123.041L331.344,123.816L331.011,124.310L330.714,125.173L330.328,125.672L330.075,126.420L329.946,127.109L329.997,127.425L329.424,127.773L328.305,127.809L327.382,128.219L326.922,128.607L326.318,129.036L325.490,128.594L324.877,128.417L325.032,127.896L324.486,128.085L323.610,128.809L322.745,128.538L322.178,128.380L321.607,128.309L320.639,128.019L319.992,127.403L319.807,126.644L319.574,126.138L319.083,125.733L318.121,125.612L318.449,125.127L318.208,124.385L317.719,125.077L316.829,125.261L317.352,124.707L317.504,124.130L317.890,123.640L317.810,122.900L316.997,123.753L316.372,124.095L315.989,124.890L315.208,124.479L315.239,123.948L314.613,123.223L314.086,122.848L314.274,122.617L312.991,122.011L312.288,121.983L311.326,121.496L309.536,121.590L308.241,121.948L307.103,122.282L306.149,122.216L305.089,122.729L304.222,122.959L304.029,123.484L303.660,123.890L302.811,123.914L302.183,124.003L301.299,123.821L300.580,123.930L299.894,123.976L299.299,124.509L299.007,124.464L298.506,124.747L298.025,125.065L297.296,125.025L296.625,125.025L295.564,124.386L295.027,124.197L295.049,123.623L295.545,123.487L295.715,123.260L295.679,122.900L295.802,122.205L295.690,121.612L295.161,120.602L294.997,120.031L295.040,119.461L294.642,118.810L294.616,118.516L294.174,118.118L294.049,117.335L293.477,116.543L293.339,116.117L293.778,116.549L293.441,115.621L293.937,115.911L294.233,116.298L294.216,115.786L293.721,114.999L293.625,114.684L293.394,114.385L293.502,113.806L293.707,113.560L293.843,113.060L293.737,112.475L294.150,111.756L294.225,112.517L294.648,111.830L295.460,111.495L295.947,111.069L296.712,110.702L297.166,110.624L297.442,110.747L298.230,110.374L298.836,110.263L298.988,110.044L299.252,109.953L299.805,109.977L300.856,109.684L301.400,109.240L301.655,108.705L302.242,108.198L302.287,107.799L302.313,107.255L303.013,106.405L303.434,107.269L303.859,107.069L303.503,106.597L303.817,106.111L304.258,106.328L304.380,105.567L304.926,105.075L305.167,104.680L305.670,104.510L305.686,104.231L306.125,104.347L306.143,104.096L306.583,103.953L307.066,103.818L307.805,104.277L308.360,104.869L308.986,104.876L309.621,104.970L309.410,104.421L309.889,103.619L310.339,103.357L310.184,103.108L310.618,102.536L311.223,102.184L311.735,102.302L312.575,102.114L312.557,101.603L311.825,101.274L312.357,101.129L313.020,101.376L313.551,101.787L314.393,102.042L314.679,101.941L315.298,102.249L315.883,101.962L316.258,102.049L316.492,101.857L316.952,102.352L316.685,102.887L316.305,103.291L315.962,103.325L316.078,103.724L315.784,104.224L315.429,104.715L315.500,104.998L316.295,105.550L317.065,105.871L317.580,106.215L318.303,106.808L318.585,106.807L319.109,107.063L319.261,107.372L320.215,107.711L320.875,107.369L321.071,106.832L321.274,106.389L321.398,105.841L321.702,105.045L321.563,104.561L321.636,104.270L321.520,103.698L321.651,102.945L321.843,102.742L321.687,102.408L321.929,101.877L322.118,101.328L322.144,101.043L322.515,100.668L322.797,101.157L322.867,101.785L323.116,101.906L323.159,102.326L323.522,102.834L323.597,103.400L323.562,103.764Z M342.119,100.483L342.399,100.826L341.700,100.820L341.320,100.205L341.917,100.447L342.119,100.483Z M300.716,100.240L300.295,100.259L298.968,99.558L299.900,99.361L300.426,99.666L300.776,99.970L300.716,100.240Z M340.852,99.873L340.463,99.895L339.849,99.794L339.640,99.640L339.703,99.243L340.363,99.400L340.689,99.610L340.852,99.873Z M341.680,99.600L341.529,99.784L340.788,98.918L340.580,98.320L340.920,98.320L341.280,99.120L341.680,99.600Z M304.436,100.140L303.580,100.360L303.460,100.240L303.550,99.900L303.980,99.290L304.969,98.893L305.086,98.657L305.947,98.432L306.645,98.398L306.957,98.273L307.336,98.397L306.968,98.668L305.926,99.106L305.089,99.393L304.436,100.140Z M297.900,98.096L298.261,98.362L298.878,98.281L299.127,98.706L297.970,98.907L297.278,99.041L296.740,99.033L297.084,98.457L297.632,98.449L297.900,98.096Z M302.904,98.094L302.757,98.650L301.254,98.934L299.924,98.810L299.921,98.445L300.715,98.237L301.342,98.537L302.007,98.461L302.904,98.094Z M339.875,98.337L339.917,98.538L339.134,98.114L338.586,97.755L338.211,97.422L338.360,97.320L338.820,97.560L339.640,98.020L339.875,98.337Z M337.538,97.348L337.339,97.405L336.902,97.177L336.491,96.766L336.543,96.599L337.140,97.022L337.538,97.348Z M288.623,96.778L290.539,96.877L290.760,96.465L292.615,96.946L292.979,97.594L294.479,97.777L295.706,98.371L294.565,98.752L293.465,98.349L292.560,98.376L291.522,98.302L290.586,98.123L289.428,97.741L288.694,97.642L288.278,97.767L286.454,97.355L286.281,96.925L285.365,96.851L286.052,95.896L287.265,95.955L288.072,96.346L288.487,96.422L288.623,96.778Z M314.725,96.214L314.210,96.895L314.113,96.142L314.290,95.783L314.500,95.445L314.727,95.738L314.725,96.214Z M335.880,96.820L335.600,96.920L335.167,96.536L334.729,95.901L334.514,95.139L334.653,95.042L334.760,95.340L335.063,95.567L335.548,96.201L336.020,96.540L335.880,96.820Z M331.983,95.478L331.459,95.560L331.301,95.841L330.754,96.084L330.241,96.318L329.710,96.317L328.890,96.026L328.319,95.747L328.402,95.438L329.298,95.584L329.846,95.506L329.996,95.026L330.140,95.001L330.237,95.532L330.807,95.456L331.090,95.114L331.648,94.757L331.538,94.168L332.137,94.149L332.339,94.313L332.319,94.868L331.983,95.478Z M307.249,93.459L306.875,93.791L306.184,93.607L305.989,93.177L307.001,93.129L307.249,93.459Z M310.471,93.094L310.835,93.858L309.991,93.446L309.155,93.363L308.591,93.429L307.899,93.393L308.136,92.844L309.371,92.802L310.471,93.094Z M333.140,94.500L332.827,94.766L332.639,94.176L332.406,93.790L331.953,93.462L331.384,93.035L330.662,92.741L330.940,92.500L331.480,92.780L331.820,93.000L332.240,93.240L332.640,93.660L333.020,93.980L333.140,94.500Z M314.143,91.152L314.423,92.769L315.458,93.368L316.293,92.307L317.441,91.704L318.330,91.703L319.185,92.051L319.927,92.409L321.000,92.600L322.735,93.289L324.584,93.861L325.273,94.374L325.830,94.876L325.982,95.466L327.648,96.084L327.891,96.614L326.971,96.722L327.192,97.388L328.085,98.044L328.734,99.105L329.307,99.071L329.267,99.514L330.039,99.684L329.739,99.873L330.802,100.294L330.691,100.583L330.028,100.652L329.782,100.393L328.923,100.281L327.913,100.130L327.135,99.492L326.568,98.943L326.048,98.067L324.744,97.630L323.897,97.915L323.286,98.245L323.414,98.983L322.628,99.327L322.068,99.160L321.034,99.118L320.143,98.297L319.128,98.096L318.881,98.381L317.614,98.412L318.039,97.598L318.669,97.320L318.408,96.233L317.928,95.393L315.989,94.547L315.165,94.463L313.663,93.539L313.368,94.025L312.984,94.113L312.757,93.746L312.754,93.312L311.990,92.821L313.067,92.460L313.780,92.480L313.696,92.215L312.232,92.213L311.836,91.617L310.943,91.433L310.520,90.938L311.868,90.695L312.380,90.370L313.986,90.780L314.143,91.152Z M305.241,88.580L304.437,89.572L303.686,89.764L302.723,89.569L301.057,89.619L300.183,89.763L300.041,90.520L300.936,91.409L301.476,90.956L303.341,90.616L303.258,91.076L302.823,90.931L302.389,91.517L301.508,91.904L302.455,93.186L302.272,93.529L303.171,94.684L303.162,95.341L302.629,95.635L302.236,95.283L302.720,94.464L301.738,94.851L301.489,94.575L301.619,94.188L300.898,93.602L300.972,92.628L300.305,92.932L300.390,94.098L300.431,95.528L299.797,95.673L299.367,95.380L299.654,94.459L299.499,93.494L299.078,93.487L298.768,92.802L299.181,92.147L299.323,91.353L299.826,89.846L300.036,89.434L300.886,88.691L301.667,88.986L302.928,89.125L304.078,89.083L305.066,88.357L305.241,88.580Z M308.688,88.868L308.636,89.742L308.120,89.644L307.968,90.252L308.380,90.780L308.100,90.900L307.696,90.267L307.399,88.988L307.601,88.189L307.932,87.825L308.004,88.371L308.595,88.459L308.688,88.868Z M285.818,95.852L284.710,95.873L283.868,95.037L282.584,94.220L282.156,93.614L281.399,92.800L280.903,92.050L280.142,90.650L279.264,89.817L278.970,88.957L278.601,88.176L277.700,87.547L277.177,86.691L276.424,86.131L275.381,85.029L275.293,84.520L275.937,84.560L277.485,84.754L278.369,85.732L279.143,86.410L279.694,86.826L280.641,87.901L281.658,87.916L282.498,88.601L283.077,89.439L283.838,89.895L283.438,90.712L284.011,91.059L284.370,91.085L284.539,91.782L284.888,92.340L285.622,92.429L286.109,93.062L285.857,94.306L285.818,95.852Z M297.876,88.172L298.997,89.098L297.812,89.216L297.478,89.898L297.522,90.804L296.560,91.488L296.534,92.484L296.148,94.013L296.001,93.657L294.865,94.107L294.469,93.496L293.756,93.439L293.257,93.119L292.068,93.478L291.703,92.994L291.048,93.049L290.224,92.934L290.071,91.593L289.572,91.315L289.092,90.460L288.953,89.585L289.069,88.658L289.663,87.994L290.396,88.336L291.169,88.149L291.370,87.303L291.797,87.114L292.996,86.898L293.713,86.106L294.204,85.474L294.600,85.100L295.451,84.552L296.221,83.857L296.725,83.075L297.130,83.072L297.643,83.578L297.689,84.013L298.348,84.291L299.182,84.592L299.111,84.984L298.440,85.033L298.618,85.522L297.882,85.862L297.313,86.766L298.048,87.712L297.876,88.172Z M306.377,81.585L306.479,82.250L306.537,82.811L306.197,83.726L305.831,82.706L305.364,83.214L305.683,83.950L305.397,84.419L304.220,83.839L303.939,83.115L304.244,82.639L303.610,82.166L303.296,82.581L302.826,82.543L302.085,83.101L301.920,82.808L302.312,81.965L302.942,81.684L303.488,81.307L303.841,81.760L304.601,81.486L304.765,81.040L305.471,81.013L305.412,80.240L306.223,80.714L306.307,81.218L306.377,81.585Z M261.218,83.803L260.348,84.032L259.872,83.237L259.695,81.799L260.148,80.176L260.839,80.732L261.304,81.436L261.788,82.477L261.637,83.518L261.218,83.803Z M119.065,79.890L118.230,80.000L118.050,79.910L118.340,79.635L118.320,79.240L118.895,79.110L119.105,79.145L119.065,79.890Z M303.982,79.721L303.623,80.050L303.310,80.682L302.996,80.978L302.380,80.287L302.586,80.019L302.837,79.739L302.947,79.118L303.499,79.059L303.338,79.733L304.078,78.767L303.982,79.721Z M298.505,80.684L297.174,81.632L297.664,80.933L298.387,80.316L298.987,79.624L299.511,78.630L299.690,79.446L299.029,79.996L298.505,80.684Z M301.884,78.108L302.484,78.418L303.120,78.416L303.101,78.834L302.638,79.259L302.003,79.559L301.967,79.094L302.038,78.584L301.884,78.108Z M305.503,77.837L305.783,78.954L305.012,78.689L305.033,79.024L305.277,79.641L304.802,79.865L304.760,79.162L304.459,79.110L304.303,78.505L304.891,78.584L304.878,78.206L304.267,77.442L305.227,77.464L305.503,77.837Z M301.527,76.930L301.262,77.794L300.834,77.296L300.323,76.534L301.180,76.570L301.527,76.930Z M301.321,71.496L301.938,71.781L302.246,71.521L302.337,71.775L302.174,72.190L302.516,72.906L302.252,73.738L301.663,74.069L301.505,74.875L301.729,75.672L302.259,75.782L302.701,75.663L303.950,76.218L303.855,76.762L304.181,77.002L304.077,77.463L303.298,76.972L302.929,76.447L302.671,76.814L302.035,76.216L301.126,76.363L300.629,76.142L300.679,75.729L300.992,75.475L300.693,75.243L300.564,75.604L300.070,75.029L299.921,74.594L299.884,73.636L300.286,73.965L300.390,72.401L300.716,71.495L301.321,71.496Z M114.409,71.772L114.153,72.024L113.400,72.018L112.816,72.053L112.758,71.626L112.899,71.479L113.718,71.485L114.229,71.573L114.409,71.772Z M103.097,72.132L102.794,72.299L102.234,72.138L101.662,71.774L101.782,71.545L102.203,71.476L102.430,71.509L103.103,71.599L103.635,71.839L103.800,72.113L103.097,72.132Z M107.420,70.128L108.288,70.286L108.413,70.115L109.193,70.120L109.786,70.377L110.049,70.352L110.231,70.707L110.778,70.687L110.746,70.985L111.191,71.021L111.682,71.388L111.311,71.795L110.835,71.577L110.376,71.619L110.047,71.572L109.867,71.754L109.483,71.816L109.331,71.573L109.000,71.717L108.600,72.401L108.342,72.242L108.292,71.955L107.628,71.785L107.156,71.854L106.545,71.782L106.078,71.969L105.542,71.657L105.630,71.335L106.550,71.474L107.305,71.554L107.665,71.332L107.208,70.898L107.216,70.516L106.585,70.360L106.810,70.084L107.420,70.128Z M290.339,71.322L289.475,71.802L288.655,71.492L288.626,70.632L289.119,70.179L290.212,69.899L290.787,69.922L291.010,70.304L290.571,70.744L290.339,71.322Z M24.458,70.917L24.312,71.084L24.063,70.941L24.092,70.661L23.927,70.297L23.976,70.186L24.150,70.023L24.081,69.826L24.139,69.733L24.215,69.751L24.598,69.920L24.775,70.007L24.938,70.141L25.193,70.491L25.169,70.547L24.778,70.760L24.458,70.917Z M23.921,69.356L23.586,69.428L23.413,69.217L23.298,69.136L23.289,69.073L23.387,68.988L23.743,69.083L24.004,69.236L23.921,69.356Z M23.242,68.823L23.211,68.931L22.675,68.902L22.750,68.780L23.242,68.823Z M22.347,68.678L22.293,68.736L22.221,68.723L21.873,68.688L21.746,68.461L21.707,68.421L21.975,68.283L22.058,68.347L22.347,68.678Z M20.655,68.018L20.536,68.117L20.199,67.935L20.251,67.862L20.404,67.764L20.634,67.785L20.655,68.018Z M100.320,67.235L100.719,67.601L101.653,67.488L102.007,67.723L102.854,68.342L103.476,68.793L103.805,68.779L104.402,68.983L104.329,69.265L105.066,69.306L105.822,69.715L105.703,69.950L105.038,70.077L104.365,70.126L103.676,70.047L102.245,70.145L102.915,69.587L102.507,69.327L101.863,69.260L101.517,68.971L101.280,68.402L100.715,68.441L99.783,68.173L99.482,67.963L98.179,67.808L97.830,67.613L98.205,67.363L97.224,67.312L96.506,67.831L96.091,67.845L95.948,68.089L95.453,68.199L95.025,68.104L95.553,67.795L95.770,67.434L96.222,67.212L96.732,67.017L97.490,66.921L97.732,66.811L98.596,66.883L99.381,66.894L100.320,67.235Z M102.465,66.240L102.220,66.290L101.966,65.714L101.592,65.424L101.809,64.790L102.110,64.830L102.460,65.660L102.465,66.240Z M301.176,67.209L300.747,68.029L300.220,67.185L300.106,66.444L300.695,65.462L301.495,64.705L301.951,65.002L301.778,65.606L301.176,67.209Z M102.180,63.420L101.090,63.580L101.020,63.210L101.490,63.130L102.150,63.160L102.180,63.420Z M103.000,63.410L102.827,64.121L102.644,63.993L102.660,63.470L102.212,63.075L102.210,62.960L103.000,63.410Z M314.638,55.851L314.766,56.194L314.203,56.799L313.793,56.478L313.280,56.710L313.015,57.295L312.363,57.011L312.371,56.536L312.924,55.940L313.493,56.055L313.904,55.635L314.638,55.851Z M214.576,54.328L213.901,54.754L213.974,54.941L214.005,55.022L212.980,55.428L212.490,55.298L212.257,54.897L212.732,54.860L212.802,54.854L212.947,54.613L213.667,54.627L214.576,54.328Z M203.700,54.295L204.247,54.632L205.025,54.575L205.769,54.646L205.745,54.820L206.290,54.700L206.165,54.995L204.725,55.080L204.735,54.915L203.515,54.720L203.700,54.295Z M195.520,51.769L195.160,52.556L195.310,52.866L195.100,53.380L194.335,53.003L193.827,52.895L192.431,52.387L192.571,51.874L193.741,51.965L194.761,51.856L195.520,51.769Z M189.210,48.790L189.810,49.500L189.670,50.823L189.215,50.760L188.807,51.093L188.428,50.828L188.388,49.622L188.160,49.050L188.710,49.100L189.210,48.790Z M320.976,52.858L320.600,53.656L320.774,54.157L320.253,54.862L318.976,55.332L317.218,55.394L315.793,56.535L315.121,56.151L315.079,55.403L313.340,55.624L312.157,56.095L310.986,56.114L312.000,56.850L311.333,58.550L310.686,58.970L310.202,58.582L310.448,57.681L309.815,57.390L309.408,56.704L310.354,56.396L310.878,55.767L311.884,55.250L312.618,54.567L314.608,54.268L315.678,54.473L316.724,52.695L317.391,53.173L318.858,52.173L319.426,51.784L320.055,50.561L319.883,49.437L320.306,48.805L321.369,48.621L321.914,50.008L321.885,50.819L320.959,51.826L320.976,52.858Z M189.560,47.848L189.230,48.620L188.776,48.416L188.544,47.743L188.746,47.372L189.390,46.990L189.560,47.848Z M323.910,45.826L324.613,46.039L325.321,45.615L325.543,46.738L324.060,47.012L323.184,48.005L321.611,47.321L321.067,48.415L319.955,48.430L319.818,47.436L320.312,46.667L321.381,46.611L321.672,45.228L321.968,44.449L323.143,45.490L323.910,45.826Z M116.335,43.450L117.061,43.584L117.988,43.557L117.496,43.967L117.126,44.032L115.857,43.607L115.607,43.273L115.985,42.964L116.335,43.450Z M118.194,40.895L117.707,40.913L116.411,40.599L115.481,40.127L115.827,40.043L117.142,40.294L118.164,40.711L118.194,40.895Z M56.490,41.490L55.987,41.629L54.345,41.175L54.045,40.820L53.150,40.470L52.970,40.185L51.941,40.005L51.555,39.461L51.642,39.229L52.691,39.447L53.305,39.599L54.245,39.705L54.585,40.050L55.079,40.525L56.077,40.938L56.490,41.490Z M123.866,39.313L123.204,40.188L123.857,39.850L124.529,40.064L124.178,40.413L125.065,40.687L125.526,40.443L126.523,40.751L126.214,41.483L126.914,41.312L127.041,41.843L127.352,42.464L126.931,43.345L126.479,43.382L125.821,43.193L126.038,42.375L125.760,42.248L124.599,43.115L124.003,43.080L124.709,42.610L123.749,42.367L122.675,42.427L120.734,42.397L120.581,42.101L121.203,41.748L120.768,41.477L121.608,40.874L122.641,39.282L123.261,38.713L124.129,38.368L124.593,38.412L124.400,38.683L123.866,39.313Z M47.290,35.960L47.290,35.960L47.290,35.960L47.290,35.960L48.250,35.880L47.951,37.015L48.821,37.820L48.422,37.818L47.820,37.360L47.450,36.900L46.945,36.589L46.760,36.149L46.820,35.830L47.290,35.960Z M323.648,39.252L324.654,41.024L323.174,40.693L322.559,42.138L323.533,43.163L323.505,43.862L322.748,43.259L322.092,44.033L321.907,43.194L322.018,42.220L321.904,41.141L322.136,40.385L322.180,39.048L321.594,38.065L321.683,36.698L322.607,36.238L322.210,35.775L322.655,35.634L322.915,36.295L323.261,37.259L323.235,38.243L323.648,39.252Z M173.211,37.740L171.438,38.331L170.023,38.180L170.834,37.135L170.311,36.119L171.672,35.335L172.428,34.868L173.266,34.827L174.338,35.445L173.802,36.132L173.967,36.847L173.211,37.740Z M192.690,34.390L192.090,35.200L191.044,34.635L190.904,34.220L192.371,33.889L192.690,34.390Z M26.994,32.884L25.995,33.265L25.484,33.007L25.329,32.539L26.237,32.183L26.771,32.031L27.435,32.099L27.859,32.409L26.994,32.884Z M176.995,31.365L175.926,32.447L176.945,32.310L178.041,32.315L177.780,33.130L176.881,34.026L177.915,34.090L178.885,35.375L179.570,35.536L180.185,36.675L180.470,37.070L181.682,37.260L181.560,37.900L181.051,38.193L181.450,38.711L180.550,39.234L179.212,39.225L177.510,39.500L177.044,39.303L176.383,39.772L175.457,39.658L174.755,40.040L174.223,39.840L175.690,38.790L176.585,38.574L175.016,38.407L174.733,38.009L175.778,37.699L175.230,37.160L175.420,36.505L176.908,36.596L177.055,36.015L176.370,35.385L175.156,35.209L174.917,34.938L175.281,34.492L174.952,34.216L174.414,34.689L174.355,33.725L173.850,33.215L174.213,32.181L174.990,31.370L175.789,31.449L176.995,31.365Z M14.421,30.090L13.807,30.246L13.152,30.059L12.545,29.787L13.532,29.616L14.326,29.706L14.421,30.090Z M100.734,27.841L100.342,28.367L99.900,28.282L99.638,27.984L99.685,27.914L100.071,27.614L100.480,27.636L100.734,27.841Z M98.102,27.289L96.931,27.841L96.225,27.818L96.006,27.547L96.750,27.086L98.123,27.095L98.102,27.289Z M8.268,26.217L8.886,26.408L9.509,26.305L10.317,26.569L11.311,26.702L11.228,26.811L10.471,27.023L9.709,26.806L9.329,26.624L8.447,26.682L8.209,26.594L8.268,26.217Z M94.839,24.343L95.024,24.782L95.536,24.628L96.117,24.890L97.212,25.233L98.358,25.545L98.447,26.020L99.183,25.943L99.897,26.274L99.009,26.589L97.453,26.348L96.891,25.898L95.900,26.430L94.477,26.948L94.133,26.363L92.778,26.459L93.647,25.964L93.775,25.177L94.116,24.261L94.839,24.343Z M165.491,23.544L165.260,24.191L166.390,24.873L165.090,25.636L162.206,26.321L161.344,26.504L160.027,26.356L157.237,26.040L158.222,25.598L156.045,25.109L157.816,24.915L157.773,24.621L155.674,24.389L156.349,23.737L157.865,23.590L159.424,24.268L160.943,23.723L162.201,24.006L163.832,23.473L165.491,23.544Z M104.134,22.851L103.013,22.901L102.764,22.412L103.188,21.851L104.105,21.713L104.885,21.990L104.897,22.418L104.784,22.556L104.134,22.851Z M4.986,23.416L5.660,23.664L5.428,22.938L8.143,23.087L10.100,24.023L9.109,24.459L7.470,24.562L7.445,25.539L7.045,25.747L6.108,25.717L5.346,25.369L4.016,25.077L3.793,24.643L2.777,24.480L1.640,24.609L1.097,24.260L1.314,23.888L0.116,24.125L0.567,24.596L0.000,25.020L0.000,21.036L2.450,21.800L5.072,22.794L4.986,23.416Z M84.352,20.892L83.730,21.243L82.383,20.940L81.568,21.049L80.203,20.600L81.083,20.290L81.782,19.856L82.843,20.140L83.443,20.320L83.743,20.510L84.352,20.892Z M360.000,19.168L358.903,19.219L358.725,18.901L360.000,18.484L360.000,19.168Z M1.306,19.107L0.000,19.168L0.000,18.484L0.128,18.442L0.976,18.444L2.422,18.731L2.336,18.867L1.306,19.107Z M89.453,20.502L89.448,21.525L90.785,20.741L91.980,21.385L91.682,22.127L92.650,22.801L93.694,22.078L94.423,21.216L94.478,20.118L95.899,20.195L97.378,20.342L98.720,20.838L98.780,21.334L98.036,21.867L98.741,22.403L98.614,22.889L96.656,23.588L95.265,23.743L94.231,23.442L93.932,23.944L92.969,24.787L92.677,25.224L91.517,25.901L90.086,25.967L89.296,26.390L89.230,27.040L88.067,27.165L86.843,27.975L85.758,29.101L85.371,29.890L85.315,31.051L86.785,31.218L87.235,32.154L87.703,32.913L89.102,32.715L90.961,33.148L91.960,33.528L92.676,34.001L93.929,34.276L94.988,34.697L96.640,34.755L97.727,34.852L97.564,35.718L97.875,36.723L98.599,37.842L100.087,38.792L100.857,38.466L101.398,37.438L100.876,35.859L100.170,35.332L101.771,34.864L102.904,34.162L103.459,33.466L103.377,32.797L102.698,31.948L101.483,31.195L102.663,30.147L102.227,29.242L101.893,27.680L102.589,27.450L104.304,27.721L105.332,27.819L106.160,27.556L107.091,27.895L108.323,28.475L108.626,28.863L110.410,28.938L110.380,29.779L110.712,31.043L111.625,31.199L112.350,31.788L113.798,31.233L114.755,30.129L115.417,29.664L116.195,30.557L117.498,31.833L118.604,33.032L118.201,33.661L119.531,34.224L120.430,34.796L122.025,35.055L122.667,35.373L123.063,36.220L123.842,36.352L124.244,36.729L124.317,37.853L123.591,38.229L122.873,38.580L121.225,38.936L119.967,39.757L118.276,39.919L116.138,39.709L114.637,39.702L113.601,39.771L112.764,40.489L111.489,40.932L110.046,42.255L108.896,43.178L109.745,43.014L111.350,41.700L113.448,40.867L114.944,40.767L115.829,41.258L114.885,41.929L115.201,43.007L115.528,43.761L116.827,44.261L118.479,44.116L119.482,42.992L119.551,43.717L120.197,44.080L118.960,44.735L116.745,45.330L115.753,45.734L114.636,46.455L113.877,46.381L113.838,45.535L115.575,44.708L113.974,44.741L112.863,44.862L113.035,45.190L111.968,45.675L110.940,46.020L109.884,46.316L109.310,46.970L109.185,47.135L109.175,47.665L109.505,48.195L109.920,48.220L109.815,47.855L110.115,48.077L110.035,48.363L109.360,48.525L108.880,48.505L108.140,48.680L107.705,48.730L107.124,48.779L106.290,49.069L107.759,48.880L108.055,49.070L106.655,49.370L106.018,49.372L106.048,49.249L105.743,49.526L106.038,49.572L105.822,50.291L105.094,51.060L105.020,50.804L104.800,50.752L104.472,50.502L104.680,51.040L104.917,51.219L104.943,51.596L104.623,51.984L104.060,52.783L103.969,52.743L104.278,52.063L103.767,51.681L103.650,50.850L103.457,51.282L103.671,51.917L103.040,51.767L103.698,52.082L103.741,53.034L104.028,53.103L104.132,53.449L104.273,54.449L103.637,55.192L102.602,55.488L101.945,56.075L101.446,56.139L100.939,56.506L100.797,56.841L99.699,57.491L99.135,57.967L98.664,58.560L98.510,59.270L98.686,59.964L99.020,60.820L99.464,61.528L99.470,61.960L99.943,63.120L99.912,63.794L99.869,64.183L99.619,64.794L99.320,64.920L98.828,64.799L98.670,64.360L98.290,64.130L97.760,63.270L97.295,62.505L97.145,62.114L97.350,61.450L97.070,60.900L96.290,60.063L95.900,59.910L94.891,60.364L94.712,60.314L94.227,59.847L93.600,59.600L92.470,59.726L91.582,59.615L90.820,59.684L90.395,59.824L90.586,60.106L90.570,60.511L90.782,60.709L90.592,60.840L90.221,60.693L89.845,60.883L89.120,60.851L88.373,60.323L87.501,60.448L86.774,60.216L86.152,60.286L85.310,60.520L84.400,61.261L83.406,61.693L82.860,62.170L82.630,62.620L82.620,63.310L82.670,63.790L82.860,64.130L82.861,64.132L82.858,64.134L82.472,65.008L82.297,65.728L82.224,67.067L82.128,67.556L82.301,68.101L82.611,68.589L82.811,69.365L83.474,70.109L83.708,70.680L84.099,71.172L85.161,71.437L85.574,71.856L86.451,71.576L87.214,71.475L87.963,71.295L88.592,71.124L89.228,70.716L89.466,70.133L89.549,69.292L89.721,69.000L90.399,68.738L91.456,68.506L92.342,68.541L92.948,68.456L93.188,68.669L93.154,69.150L92.617,69.745L92.379,70.354L92.563,70.528L92.414,70.960L92.163,71.740L91.909,71.483L91.700,71.500L91.704,71.647L91.893,71.651L91.877,71.923L91.715,72.356L91.802,72.510L91.697,72.868L91.760,72.964L91.645,73.469L91.448,73.734L91.268,73.766L91.069,74.113L91.395,74.294L91.482,74.144L91.775,74.272L91.879,74.311L92.098,74.135L92.384,74.121L92.477,74.203L92.632,74.153L93.097,74.243L93.559,74.217L93.881,74.107L93.998,73.995L94.317,74.046L94.556,74.114L94.818,74.091L95.016,74.004L95.473,74.143L95.632,74.165L95.937,74.352L96.226,74.576L96.590,74.729L96.853,75.004L96.767,75.100L96.716,75.323L96.818,75.689L96.588,76.030L96.480,76.432L96.448,76.873L96.502,77.131L96.527,77.581L96.374,77.679L96.280,78.107L96.349,78.371L96.145,78.627L96.191,78.897L96.344,79.061L96.598,79.604L96.984,80.007L97.454,80.434L97.813,80.792L97.792,81.004L98.191,81.049L98.286,80.968L98.561,81.214L99.053,81.141L99.478,80.889L100.085,80.687L100.427,80.388L100.979,80.447L100.942,80.545L101.499,80.580L101.944,80.752L102.271,81.053L102.647,81.330L103.163,81.361L103.914,80.663L104.325,80.557L104.335,80.226L104.520,79.381L105.093,78.917L105.723,78.898L105.803,78.690L106.585,78.773L107.372,78.268L107.762,78.044L108.246,77.563L108.600,77.624L108.863,77.887L108.668,78.224L108.640,78.460L108.053,78.577L108.379,79.031L108.367,79.554L107.926,80.134L108.304,80.928L108.735,80.863L108.960,80.140L108.650,79.788L108.599,79.031L109.845,78.625L109.706,78.153L110.057,77.838L110.416,78.540L111.117,78.557L111.767,79.114L111.806,79.445L112.704,79.454L113.772,79.351L114.345,79.799L115.110,79.923L115.671,79.610L115.682,79.359L116.921,79.298L118.119,79.284L117.270,79.580L117.612,80.052L118.411,80.127L119.169,80.619L119.329,81.420L119.850,81.397L120.242,81.633L120.898,82.001L121.517,82.652L121.545,83.167L121.922,83.191L122.458,83.679L122.853,84.027L124.051,84.227L124.158,84.047L124.967,83.975L126.042,84.243L126.382,84.354L127.118,84.590L128.177,85.434L128.342,85.844L128.683,85.797L128.930,86.349L129.491,88.099L130.026,88.263L130.053,88.954L129.301,89.777L129.612,90.078L131.380,90.235L131.416,91.238L132.175,90.582L133.433,90.941L135.094,91.552L135.582,92.138L135.418,92.691L136.581,92.383L138.527,92.912L140.021,92.873L141.500,93.701L142.777,94.821L143.547,95.109L144.402,95.149L144.765,95.465L145.104,96.738L145.270,97.343L144.872,98.996L144.363,99.649L142.953,101.041L142.316,102.171L141.576,103.038L141.326,103.058L141.047,103.793L141.118,105.667L140.839,107.208L140.733,107.868L140.417,108.262L140.239,109.599L139.225,110.904L139.055,111.937L138.246,112.371L138.012,112.970L136.925,112.968L135.352,113.352L134.648,113.797L133.528,114.089L132.351,114.885L131.505,115.877L131.359,116.624L131.525,117.176L131.339,118.186L131.112,118.674L130.413,119.224L129.303,120.984L128.424,121.778L127.744,122.245L127.288,123.197L126.626,123.768L126.194,124.397L125.064,124.953L124.326,124.753L123.785,124.860L122.860,124.430L122.182,124.463L121.573,123.909L121.505,124.432L122.774,125.288L122.638,125.977L123.263,126.413L123.212,126.901L122.251,128.184L120.768,128.720L118.763,128.928L117.664,128.828L117.874,129.424L117.669,130.173L117.854,130.677L117.254,131.029L116.229,131.167L115.268,130.803L114.882,131.064L115.021,132.058L115.697,132.359L116.244,132.044L116.542,132.563L115.621,132.873L114.818,133.495L114.671,134.501L114.435,135.037L113.490,135.040L112.706,135.552L112.419,136.302L113.403,137.034L114.359,137.236L114.015,138.133L112.834,138.697L112.184,139.870L111.271,140.264L110.862,140.732L111.185,141.771L111.850,142.350L111.429,142.299L110.539,142.292L110.057,142.538L109.155,142.899L108.994,143.833L108.570,143.856L107.442,143.531L106.297,142.835L105.053,142.263L104.740,141.629L105.023,141.043L104.520,140.378L104.392,138.674L104.817,137.712L105.873,136.939L104.356,136.648L105.308,135.764L105.648,134.103L106.760,134.455L107.282,132.383L106.611,132.117L106.299,133.366L105.668,133.225L105.982,131.795L106.323,129.942L106.782,129.259L106.495,128.283L106.412,127.156L106.833,127.124L107.447,125.509L108.138,123.909L108.562,122.419L108.331,120.921L108.630,120.096L108.510,118.861L109.095,117.640L109.275,115.706L109.596,113.629L109.909,111.393L109.836,109.756L109.628,108.348L108.625,107.774L108.538,107.363L106.555,106.359L104.762,105.266L103.991,104.649L103.577,103.823L103.741,103.535L102.894,102.223L101.908,100.378L100.963,98.387L100.554,97.931L100.240,97.194L99.463,96.542L98.750,96.137L99.074,95.690L98.589,94.737L98.900,94.036L99.698,93.405L100.230,92.657L100.013,92.221L99.631,92.685L99.032,92.247L99.235,91.965L99.066,91.057L99.417,90.907L99.601,90.284L99.979,89.640L99.909,89.232L100.457,89.017L101.145,88.619L101.009,88.309L101.382,88.234L101.338,87.733L101.572,87.370L102.068,87.303L102.490,86.675L102.872,86.150L102.504,85.912L102.692,85.332L102.467,84.417L102.681,84.155L102.523,83.309L102.118,82.776L101.785,82.488L101.571,81.948L101.818,81.681L101.565,81.612L101.378,81.282L100.880,81.004L100.442,81.068L100.240,81.416L99.836,81.667L99.617,81.701L99.519,81.910L99.996,82.453L99.723,82.580L99.579,82.729L99.114,82.779L98.940,82.182L98.810,82.352L98.481,82.293L98.279,81.891L97.869,81.825L97.609,81.708L97.180,81.709L97.149,81.926L97.034,81.775L96.492,81.553L96.289,81.343L96.404,81.169L96.367,80.948L96.090,80.709L95.697,80.513L95.352,80.385L95.287,80.092L95.024,79.913L95.089,80.204L94.889,80.443L94.661,80.166L94.339,80.067L94.203,79.865L94.208,79.561L94.341,79.246L94.058,79.105L94.287,78.911L93.942,78.596L93.474,78.193L93.254,77.856L92.833,77.542L92.331,77.090L92.443,76.935L92.608,77.086L92.683,77.015L92.511,76.703L92.207,76.615L92.096,76.851L91.517,76.836L91.157,76.740L90.743,76.541L90.188,76.479L89.904,76.265L89.391,76.090L88.768,76.072L88.310,75.874L87.772,75.461L86.641,74.385L86.125,74.060L85.308,73.799L84.750,73.872L83.947,74.248L83.443,74.346L82.736,74.083L81.987,73.893L81.052,73.434L80.303,73.294L79.170,72.829L78.334,72.351L78.081,72.084L77.522,72.024L76.499,71.708L76.083,71.251L75.008,70.684L74.507,70.053L74.269,69.566L74.602,69.468L74.499,69.183L74.729,68.924L74.734,68.578L74.397,68.129L74.307,67.731L73.971,67.226L73.090,66.232L72.085,65.451L71.598,64.828L70.740,64.419L70.556,64.175L70.708,63.557L70.199,63.324L69.608,62.838L69.359,62.140L68.821,62.059L68.240,61.532L67.772,61.045L67.728,60.733L67.190,59.979L66.836,59.213L66.851,58.829L66.128,58.432L65.794,58.476L65.224,58.200L65.063,58.607L65.229,59.086L65.326,59.837L65.669,60.250L66.411,60.938L66.576,61.174L66.728,61.245L66.860,61.589L67.038,61.575L67.238,62.220L67.542,62.474L67.755,62.828L68.383,63.337L68.715,64.267L69.012,64.705L69.290,65.174L69.345,65.701L69.827,65.734L70.228,66.189L70.591,66.635L70.567,66.814L70.146,67.182L69.969,67.177L69.705,66.569L69.050,65.999L68.329,65.516L67.818,65.261L67.851,64.530L67.699,63.988L67.223,63.678L66.535,63.232L66.403,63.360L66.151,63.100L65.534,62.858L64.945,62.277L65.018,62.202L65.430,62.258L65.801,61.885L65.838,61.434L65.068,60.721L64.481,60.444L64.113,59.819L63.742,59.164L63.279,58.364L62.872,57.465L62.704,56.954L62.056,56.379L61.589,56.259L61.480,55.972L60.919,55.922L60.561,55.651L59.632,55.553L59.377,55.391L59.256,54.843L58.285,53.838L57.453,52.448L57.488,52.216L57.047,51.886L56.273,51.048L56.135,50.233L55.602,49.687L55.821,48.858L55.786,48.000L55.467,47.234L55.858,46.292L56.101,44.477L55.920,43.135L55.604,42.280L55.313,41.815L55.434,41.620L56.880,41.960L57.413,42.904L57.660,42.640L57.500,41.820L57.160,41.000L57.026,40.997L55.090,40.015L54.375,39.583L52.564,39.169L52.007,38.284L52.150,37.670L50.870,37.245L50.695,36.438L49.485,35.712L49.464,35.197L48.914,34.821L48.033,34.502L47.750,33.630L46.461,32.821L45.922,31.877L44.962,31.812L43.372,31.788L42.200,31.500L40.132,30.462L39.175,30.273L37.426,29.916L36.041,30.001L34.075,29.541L32.886,29.115L31.776,29.327L31.982,30.022L31.429,30.086L30.272,30.294L29.392,30.632L28.284,30.844L28.141,30.255L28.590,29.274L29.653,28.966L29.379,28.716L28.104,29.273L27.422,29.938L25.981,30.650L26.713,31.135L25.768,31.854L24.693,32.272L23.692,32.577L23.444,33.020L21.883,33.536L21.567,34.006L20.397,34.433L19.710,34.356L18.777,34.635L17.762,34.976L16.931,35.310L15.214,35.596L15.058,35.428L16.152,34.961L17.130,34.652L18.196,34.105L19.436,33.992L19.930,33.582L21.316,32.983L21.539,32.783L22.277,32.430L22.450,31.672L22.958,31.081L21.805,31.384L21.483,31.212L20.941,31.576L20.288,31.068L20.019,31.427L19.645,30.929L18.645,31.329L18.031,31.328L17.945,30.733L18.126,30.366L17.482,30.010L16.182,30.202L15.338,29.732L14.654,29.492L14.649,28.926L13.879,28.500L14.266,27.925L15.081,27.367L15.438,26.854L16.247,26.781L16.933,26.940L17.740,26.458L18.466,26.544L19.227,26.234L19.042,25.777L18.482,25.597L19.222,25.211L18.608,25.223L17.547,25.440L17.242,25.661L16.454,25.441L15.039,25.553L13.575,25.313L13.155,24.911L11.890,24.330L13.295,23.912L15.525,23.423L16.347,23.423L16.211,23.923L18.322,23.884L17.510,23.265L16.280,22.883L15.569,22.384L14.610,21.957L13.236,21.641L13.795,21.117L15.569,21.084L16.831,20.629L17.070,20.142L18.091,19.667L19.065,19.552L20.961,19.108L21.880,19.175L23.419,18.642L24.932,18.852L25.656,19.304L26.100,19.110L27.790,19.170L27.730,19.400L29.260,19.570L30.280,19.470L32.387,19.786L34.310,19.880L35.080,20.010L36.411,19.847L37.927,20.148L39.014,20.288L40.880,20.529L42.454,21.010L43.496,21.102L44.374,20.685L45.585,20.372L47.071,20.495L48.569,20.055L50.205,19.806L50.892,20.221L51.638,19.987L51.862,19.516L52.553,19.623L54.244,20.519L55.575,19.841L55.710,20.600L56.939,20.436L57.317,20.144L58.528,20.202L60.057,20.622L62.397,20.989L63.774,21.159L64.753,21.094L66.102,21.601L64.695,22.097L66.503,22.312L69.202,22.194L70.054,22.019L71.120,22.618L72.208,22.112L71.187,21.688L71.833,21.346L73.050,21.300L73.850,21.200L74.657,21.439L75.662,21.982L76.779,21.902L78.546,22.353L80.098,22.194L81.557,22.218L81.441,21.596L82.331,21.421L83.880,21.760L83.874,22.706L84.511,21.909L85.315,21.936L85.767,20.931L84.696,20.314L83.529,19.910L83.609,18.805L84.791,18.080L86.110,18.240L87.122,18.681L88.480,19.809L87.593,20.300L89.453,20.502Z M65.833,16.879L65.334,17.347L67.559,17.045L68.950,17.550L70.080,17.039L70.993,17.367L71.812,18.349L72.314,17.935L71.604,16.910L72.484,16.764L73.477,16.924L74.598,17.327L75.225,18.302L75.535,19.007L77.215,19.502L79.019,19.976L78.911,20.416L77.269,20.496L77.907,20.880L77.570,21.247L75.760,21.090L74.040,20.820L72.877,20.881L71.000,21.220L68.033,21.396L66.687,21.464L66.145,20.993L64.780,20.720L63.892,20.832L62.660,20.040L63.325,19.933L64.869,19.763L66.279,19.808L67.584,19.634L65.650,19.400L63.513,19.480L62.095,19.459L61.568,19.091L63.887,18.691L62.344,18.705L60.598,18.441L61.437,17.692L62.134,17.294L64.811,16.685L65.833,16.879Z M75.500,16.580L74.620,17.240L73.060,16.540L73.400,16.400L74.740,16.360L75.500,16.580Z M103.660,16.897L103.749,17.174L102.686,17.144L101.608,17.123L100.514,17.258L100.224,17.197L99.124,16.667L99.166,16.307L99.647,16.240L101.936,16.348L103.660,16.897Z M93.438,16.843L94.226,17.466L95.150,16.660L97.684,16.249L99.400,17.283L99.251,17.938L101.229,17.648L102.175,17.250L104.394,17.756L105.771,18.233L105.901,18.669L107.758,18.443L108.800,19.080L111.214,19.475L112.085,19.878L113.031,20.814L111.195,21.280L113.550,21.933L115.138,22.152L116.575,23.072L118.148,23.138L117.837,23.840L116.082,25.001L114.851,24.574L113.279,23.612L111.985,23.737L111.859,24.310L112.910,24.892L114.268,25.352L114.680,25.617L115.331,26.607L114.986,27.326L113.725,27.055L111.217,26.254L112.630,27.116L113.672,27.720L113.834,28.069L111.123,27.670L108.977,27.089L107.765,26.602L108.114,26.320L106.622,25.806L105.166,25.321L105.181,25.611L102.290,25.770L101.444,25.427L102.103,24.691L103.982,24.673L106.040,24.545L105.706,24.188L106.055,23.689L107.349,22.715L107.074,22.273L106.688,21.931L105.157,21.445L103.131,21.105L103.771,20.852L102.713,20.230L101.831,20.174L101.043,19.833L100.508,20.128L98.695,20.257L95.055,20.033L92.940,19.740L91.318,19.589L90.487,19.238L91.532,18.782L90.112,18.777L89.795,17.765L90.563,16.871L91.592,16.462L94.174,16.196L93.438,16.843Z M79.644,16.156L80.836,16.367L82.620,16.240L82.880,16.530L81.946,17.009L83.460,17.440L83.280,18.340L81.640,18.727L80.677,18.644L79.985,18.262L77.500,17.490L77.520,17.170L79.562,17.294L78.460,16.640L79.644,16.156Z M323.604,16.788L322.088,16.795L320.038,16.683L319.863,16.630L320.812,16.235L322.062,16.142L323.483,16.525L323.604,16.788Z M86.804,17.228L85.731,17.975L84.590,17.938L83.966,17.060L83.982,16.563L84.504,16.138L85.496,15.865L87.580,15.900L89.490,16.143L87.996,17.034L86.804,17.228Z M59.540,18.600L56.908,19.098L56.380,18.660L54.071,18.131L54.407,17.805L55.193,16.977L56.060,16.320L55.082,15.707L58.462,15.551L59.890,15.759L62.444,15.814L63.416,16.104L64.489,16.525L63.232,16.777L60.780,17.480L59.540,18.180L59.540,18.600Z M330.732,14.916L329.576,15.311L327.977,15.222L326.119,14.827L326.358,14.503L328.222,14.654L330.732,14.916Z M86.387,15.020L85.843,15.408L84.391,15.333L83.179,15.072L83.711,14.622L85.149,14.353L86.022,14.704L86.387,15.020Z M325.086,14.437L324.300,15.180L320.614,15.152L318.955,15.389L316.974,14.738L317.512,14.051L318.831,13.863L321.472,13.907L325.086,14.437Z M81.500,13.280L82.264,13.743L82.296,14.257L81.840,15.000L80.191,15.103L79.116,14.943L79.137,14.359L77.498,14.436L77.434,13.663L78.510,13.695L80.017,13.354L81.423,13.411L81.500,13.280Z M71.789,13.798L72.181,14.154L73.071,13.987L74.119,14.031L74.295,14.520L73.687,14.995L70.300,15.150L67.777,15.583L66.256,15.606L66.129,15.280L68.206,14.838L63.688,14.957L62.290,14.778L63.654,13.801L64.595,13.521L67.409,13.859L69.186,14.451L70.933,14.527L69.503,13.570L70.419,13.206L71.451,13.322L71.789,13.798Z M237.536,19.280L236.945,19.367L233.677,19.237L233.412,18.793L231.602,18.525L231.456,17.985L232.478,17.771L232.444,17.225L234.428,16.372L233.508,16.250L235.902,15.373L235.632,14.919L237.869,14.391L241.170,13.748L244.498,13.561L246.211,13.190L248.157,13.060L248.852,13.455L248.181,13.766L244.637,14.262L241.584,14.739L238.477,15.691L236.987,16.667L235.419,17.629L235.623,18.459L237.536,19.280Z M85.316,12.902L86.426,13.224L88.395,13.221L89.258,13.550L89.030,13.926L90.178,14.152L90.813,14.390L92.162,14.434L93.621,14.518L95.210,14.301L97.247,14.216L98.871,14.286L99.942,14.663L100.166,15.077L99.542,15.343L98.051,15.558L96.771,15.436L93.903,15.590L91.850,15.608L90.235,15.484L87.578,15.162L87.232,14.613L87.110,14.117L86.106,13.681L84.038,13.559L82.879,13.249L83.255,12.839L85.316,12.902Z M63.801,12.355L63.664,13.123L62.894,13.470L61.960,13.519L60.101,13.947L58.500,14.100L57.145,13.883L57.145,13.883L58.842,13.135L60.896,12.488L62.430,12.502L63.801,12.355Z M286.970,13.026L287.240,13.520L288.154,13.277L291.077,13.290L293.331,13.778L294.134,14.152L293.885,14.672L292.779,14.968L290.151,15.523L289.400,15.820L290.640,15.960L292.119,16.212L293.019,16.023L293.530,16.665L293.969,16.405L295.568,16.247L298.776,16.412L299.020,16.880L303.201,17.029L303.258,16.265L305.380,16.440L306.977,16.435L308.591,16.961L309.052,17.601L308.460,18.020L309.716,18.807L311.289,19.213L312.253,18.164L313.858,18.614L315.562,18.345L317.498,18.652L318.234,18.372L319.870,18.512L319.148,17.584L320.468,17.151L329.500,17.800L330.351,18.393L332.969,19.158L337.007,18.969L338.998,19.133L339.830,19.547L339.709,20.278L340.941,20.563L342.279,20.358L344.052,20.332L345.940,20.528L347.836,20.417L349.578,21.306L350.817,20.986L350.008,20.347L350.453,19.903L353.644,20.182L355.724,20.123L358.600,20.600L360.000,21.036L360.000,25.020L359.993,25.026L358.707,25.465L357.411,25.392L358.313,25.924L358.908,26.748L359.370,27.017L359.487,27.431L359.228,27.696L357.364,27.478L354.569,28.231L353.680,28.347L352.150,29.050L350.698,29.664L350.331,30.118L348.901,29.427L346.295,30.211L345.840,29.840L344.877,30.268L343.539,30.131L343.217,30.789L342.017,31.757L342.053,32.161L343.192,32.385L343.058,33.841L342.130,33.878L341.701,34.714L342.117,35.145L340.369,35.656L340.022,36.797L338.531,37.041L338.231,38.057L336.790,38.989L336.420,38.300L335.992,36.841L335.434,34.619L335.914,33.232L336.758,32.635L336.810,32.168L338.364,31.944L340.151,30.685L341.872,29.657L343.670,28.859L344.474,27.449L343.258,27.534L342.658,28.357L340.122,29.456L339.302,28.226L336.721,28.565L334.218,30.242L335.044,30.855L332.812,31.116L331.266,31.219L331.338,30.496L329.784,30.344L328.545,30.836L325.487,30.664L322.198,30.960L318.958,32.912L315.126,35.270L316.702,35.396L317.193,36.023L318.165,36.245L318.805,35.745L319.901,35.810L321.345,36.910L321.379,37.761L320.597,38.760L320.513,39.955L320.062,41.553L318.555,43.000L318.220,43.692L316.862,44.857L315.515,46.011L314.870,46.602L313.537,47.188L312.906,47.201L312.278,46.716L310.936,47.447L310.780,47.780L310.400,47.720L309.966,48.059L309.667,48.399L309.705,49.117L309.188,49.338L309.010,49.515L308.633,49.810L307.968,49.974L307.534,50.243L307.502,50.676L307.385,50.786L307.783,50.949L308.350,51.388L309.213,52.568L309.461,53.216L309.468,54.368L309.091,54.917L308.186,55.109L307.386,55.524L306.486,55.610L306.374,55.065L306.559,54.315L306.117,53.274L306.860,53.106L306.175,52.250L305.689,52.060L305.568,52.248L305.275,52.331L305.240,52.143L304.981,52.051L304.712,51.892L304.986,51.451L305.222,51.334L305.133,51.151L305.387,50.612L305.321,50.448L304.737,50.340L304.266,50.071L302.868,50.362L302.132,50.830L301.055,51.102L301.586,50.639L301.377,50.250L302.169,49.578L301.641,49.054L300.769,49.406L299.640,50.102L299.023,50.748L298.043,50.796L297.533,51.262L298.060,51.938L298.878,52.103L298.912,52.552L299.703,52.844L300.823,52.130L301.711,52.519L302.358,52.545L302.520,53.069L301.104,53.349L300.637,53.888L299.665,54.390L299.151,55.090L300.227,55.640L300.620,56.623L301.229,57.540L301.908,58.308L301.892,59.051L301.264,59.324L301.503,59.857L302.092,60.167L301.938,60.982L301.685,61.774L301.126,61.864L300.396,62.947L299.586,64.259L298.657,65.453L297.282,66.375L295.891,67.217L294.764,67.332L294.153,67.776L293.807,67.452L293.241,67.948L291.844,68.450L290.786,68.603L290.444,69.659L289.890,69.718L289.628,68.992L289.865,68.605L288.523,68.285L288.050,68.448L286.715,69.303L285.882,70.248L285.662,70.942L286.427,71.996L287.362,73.302L288.269,73.920L288.877,74.723L289.335,76.574L289.200,78.333L288.366,78.992L287.221,79.635L286.405,80.469L285.158,81.400L284.795,80.759L285.076,80.081L284.334,79.513L283.497,79.367L283.091,78.846L282.585,77.813L281.687,77.354L280.832,77.373L280.979,76.587L280.098,76.593L280.019,77.693L279.479,79.154L279.154,80.037L279.222,80.761L279.874,80.792L280.280,81.705L280.459,82.570L281.017,83.143L281.623,83.259L282.141,83.778L282.371,83.872L282.962,84.476L283.381,85.145L283.439,85.818L283.332,86.273L283.430,86.617L283.503,87.209L283.855,87.484L284.248,88.369L284.229,88.707L283.520,88.774L282.574,88.033L281.391,87.239L281.274,86.730L280.695,86.061L280.557,85.233L280.197,84.688L280.306,83.959L280.086,83.536L279.691,83.152L279.520,82.656L278.988,82.092L278.504,81.618L278.340,82.206L278.150,81.650L278.259,81.026L278.554,80.067L278.457,79.325L278.765,78.559L278.428,77.967L278.510,76.878L278.104,76.359L277.778,75.163L277.597,73.899L277.165,73.071L276.506,73.573L275.369,74.286L274.808,74.196L274.189,73.962L274.534,72.723L274.325,71.786L273.541,70.633L273.663,70.273L273.078,70.145L272.369,69.329L272.083,68.808L272.025,68.298L271.835,67.817L271.417,67.235L270.496,67.195L270.587,67.607L270.273,68.164L269.847,67.961L269.702,68.143L269.419,68.034L269.032,67.944L268.889,68.309L268.208,68.297L266.976,68.505L267.033,69.257L266.499,69.848L265.060,70.521L263.941,71.698L263.189,72.329L262.193,72.983L262.191,73.443L261.693,73.690L260.792,74.048L260.325,74.101L260.025,74.864L260.233,76.164L260.286,76.994L259.862,77.944L259.858,79.643L259.341,79.691L258.885,80.454L259.190,80.783L258.278,81.067L257.941,81.747L257.540,82.034L256.593,81.101L256.130,79.700L255.747,78.692L255.396,78.219L254.865,77.258L254.617,76.007L254.444,75.383L253.534,74.009L253.120,72.071L252.821,70.792L252.825,69.581L252.631,68.644L251.175,69.242L250.471,69.123L249.164,67.911L249.645,67.549L249.350,67.157L248.177,66.308L247.444,66.055L247.146,65.336L246.373,64.575L244.531,64.763L242.906,64.781L241.497,64.922L239.616,64.620L238.526,64.390L237.397,64.260L236.971,63.034L236.492,62.857L235.724,63.035L234.715,63.519L233.493,63.188L232.484,62.419L231.521,62.134L230.853,61.185L230.115,59.852L229.577,60.014L228.941,59.683L228.568,60.073L227.974,60.024L228.183,60.466L228.094,60.694L228.416,61.448L228.808,62.310L229.300,62.539L229.471,62.890L230.153,63.310L230.213,63.723L230.113,64.056L230.240,64.392L230.528,64.672L230.661,65.000L230.810,65.245L230.744,64.518L231.013,63.993L231.286,63.885L231.589,64.199L231.607,64.784L231.390,65.372L231.580,65.755L231.758,65.706L231.794,65.980L232.577,65.823L233.404,65.849L234.008,65.878L234.693,65.202L235.439,64.561L236.071,63.945L236.362,63.604L236.486,63.691L236.391,64.104L236.261,64.285L236.397,65.075L236.845,65.758L237.404,66.121L238.137,66.252L238.729,66.434L239.180,67.008L239.450,67.340L239.808,67.466L239.806,67.690L239.442,68.286L239.282,68.566L238.861,68.886L238.488,69.571L238.034,69.518L237.826,69.757L237.666,70.264L237.789,70.932L237.695,71.055L237.234,71.052L236.610,71.426L236.512,71.913L236.284,72.124L235.661,72.116L235.270,72.368L235.275,72.772L234.791,73.049L234.239,72.955L233.570,73.292L233.109,73.349L232.385,73.617L232.192,74.062L232.168,74.403L231.172,74.825L229.575,75.291L228.679,75.997L228.239,76.052L227.939,75.993L227.354,76.408L226.717,76.600L225.878,76.652L225.625,76.709L225.406,76.973L225.144,77.046L224.990,77.300L224.495,77.278L224.175,77.414L223.483,77.363L223.223,76.779L223.252,76.232L223.088,75.937L222.892,75.198L222.605,74.787L222.805,74.738L222.703,74.281L222.824,74.088L222.779,73.652L222.650,73.225L222.348,72.924L222.271,72.525L221.755,72.167L221.221,71.328L220.939,70.513L220.248,69.825L219.802,69.661L219.140,68.708L219.024,68.013L219.066,67.420L218.493,66.312L218.024,65.921L217.484,65.714L217.155,65.141L217.209,64.916L216.932,64.397L216.640,64.174L216.249,63.430L215.640,62.623L215.130,61.937L214.632,61.942L214.788,61.393L214.832,61.042L214.956,60.643L214.923,60.499L214.642,60.901L214.427,61.656L214.154,62.177L213.922,62.351L213.588,62.029L213.137,61.582L212.423,60.149L212.320,60.240L212.735,61.295L213.349,62.300L214.105,63.858L214.474,64.401L214.795,64.966L215.693,66.073L215.494,66.247L215.526,66.898L216.691,67.795L216.866,68.000L217.189,68.981L216.969,69.162L217.115,70.192L217.482,71.386L217.863,71.632L218.410,72.002L218.991,73.159L219.266,74.077L219.814,74.564L221.179,75.509L221.735,76.079L222.277,76.656L222.590,77.000L223.081,77.300L223.318,77.610L223.286,78.025L222.716,78.264L223.145,78.538L223.471,78.722L223.667,79.136L224.118,79.554L224.614,79.558L225.557,79.302L226.646,79.183L227.526,78.873L228.022,78.807L228.379,78.625L228.948,78.589L229.268,78.570L229.729,78.421L230.259,78.320L230.732,77.978L231.111,77.975L231.134,78.252L231.042,78.833L231.045,79.359L230.834,79.720L230.552,80.801L230.071,81.918L229.453,83.195L228.594,84.661L227.741,85.781L226.565,87.145L225.564,87.954L224.068,88.947L223.136,89.708L222.042,90.919L221.811,91.446L221.585,91.683L220.885,92.083L220.638,92.500L220.263,92.573L220.121,93.278L219.800,93.681L219.605,94.346L219.202,94.677L218.740,95.909L218.800,96.476L219.440,96.840L219.470,97.100L219.195,97.704L219.252,98.008L219.187,98.485L219.536,99.112L219.950,100.098L220.317,100.317L220.479,100.765L220.437,101.762L220.561,102.639L220.600,104.202L220.776,104.692L220.477,105.406L220.089,106.101L219.453,106.721L218.538,107.101L217.411,107.586L216.281,108.660L215.896,108.842L215.198,109.553L214.786,109.784L214.702,110.497L215.176,111.254L215.373,111.841L215.386,112.140L215.563,112.090L215.534,113.071L215.372,113.535L215.607,113.706L215.459,114.123L215.041,114.478L214.216,114.816L213.013,115.357L212.575,115.727L212.660,116.148L212.916,116.216L212.830,116.742L212.580,117.470L212.462,118.301L212.203,118.752L211.521,119.257L211.326,119.402L210.902,119.910L210.623,120.424L210.056,121.140L208.925,122.172L208.220,122.772L207.465,123.227L206.419,123.615L205.910,123.667L205.781,123.945L205.173,123.797L204.678,123.987L203.594,123.794L202.988,123.916L202.574,123.864L201.543,124.259L200.689,124.417L200.071,124.795L199.617,124.819L199.193,124.463L198.855,124.444L198.425,123.998L198.378,124.136L198.245,123.868L198.250,123.281L197.925,122.611L198.248,122.429L198.222,121.662L197.567,120.726L197.065,119.879L197.063,119.876L196.345,118.577L195.602,117.821L195.211,117.091L194.990,116.117L194.743,115.393L194.408,113.853L194.386,112.657L194.258,112.111L193.869,111.699L193.352,110.873L192.827,109.673L192.609,109.045L191.795,108.069L191.734,107.302L191.640,106.673L191.779,105.794L192.124,104.878L192.176,104.449L192.500,103.548L192.739,103.138L193.313,102.484L193.634,102.039L193.739,101.298L193.687,100.731L193.387,100.374L193.121,99.767L192.875,99.167L192.929,98.959L193.237,98.563L192.933,97.596L192.728,96.927L192.227,96.294L192.323,96.100L192.182,95.790L191.915,95.038L191.094,93.979L190.066,92.969L189.405,92.144L188.798,91.111L188.830,90.779L189.049,90.459L189.291,89.731L189.493,88.990L189.306,88.839L189.649,87.716L189.795,86.927L189.404,86.266L188.948,86.096L188.745,85.648L188.489,85.504L188.500,85.228L187.462,85.588L187.083,85.535L186.698,85.759L185.898,85.737L185.363,85.112L185.034,84.388L184.326,83.729L183.574,83.742L182.692,83.741L181.865,83.858L181.060,84.071L179.492,84.656L178.936,85.000L178.035,85.289L177.144,85.005L176.689,85.016L175.991,84.820L175.350,84.832L174.166,85.006L173.471,85.295L172.481,85.662L172.288,85.635L172.026,85.644L170.995,85.167L170.087,84.406L169.235,83.859L168.561,83.214L168.292,83.140L167.572,82.737L167.051,82.201L166.876,81.836L166.753,81.097L166.315,80.505L165.926,80.114L165.670,79.984L165.420,79.786L165.307,79.344L165.161,79.123L164.870,78.959L164.336,78.542L163.915,78.475L163.685,78.193L163.691,78.041L163.386,77.829L163.323,77.615L163.159,76.849L163.286,76.405L162.874,75.627L162.375,75.270L162.815,75.081L163.299,74.378L163.537,73.865L163.450,73.326L163.729,72.833L163.854,71.891L163.743,70.903L163.622,70.406L163.722,69.907L163.464,69.432L162.937,69.000L162.980,68.578L163.027,68.114L163.411,67.842L163.738,67.321L163.674,66.982L164.017,66.276L164.574,65.641L164.911,65.480L165.175,64.896L165.199,64.364L165.560,63.745L166.226,63.381L166.860,62.360L167.381,61.962L168.311,61.851L169.099,61.168L169.600,60.901L170.435,60.066L170.185,58.822L170.565,57.962L170.699,57.435L171.343,56.760L172.346,56.303L173.088,55.890L173.756,54.854L174.070,54.240L174.806,54.245L175.409,54.669L176.360,54.600L177.396,54.821L177.830,54.831L178.791,54.285L179.873,54.111L180.504,53.699L181.467,53.394L183.162,53.216L184.816,53.135L185.320,53.284L186.262,52.889L187.331,52.881L187.737,53.114L188.421,53.054L189.510,52.650L190.210,52.770L190.181,53.276L191.029,52.908L191.100,53.100L190.600,53.590L190.593,54.052L190.940,54.301L190.808,55.167L190.150,55.669L190.340,56.214L190.857,56.231L191.109,56.707L191.489,56.863L192.663,57.207L193.083,57.121L193.919,57.288L195.246,57.735L195.714,58.624L196.612,58.818L198.021,59.237L199.086,59.734L199.574,59.474L200.053,59.014L199.820,58.248L200.134,57.762L200.854,57.293L201.543,57.157L202.896,57.362L203.237,57.808L203.609,57.813L203.927,57.983L204.921,58.101L205.165,58.431L206.495,58.414L207.458,58.679L208.451,58.974L208.914,59.130L209.683,58.813L210.095,58.526L210.977,58.444L211.688,58.570L211.961,59.066L212.193,58.740L212.994,58.976L213.773,59.032L214.266,58.781L214.557,58.451L214.488,58.394L214.753,57.927L214.956,57.172L215.099,56.919L215.126,56.909L215.482,56.094L215.980,55.390L215.998,55.355L215.905,54.590L216.150,54.179L215.782,53.725L216.161,53.349L215.551,53.435L214.714,53.205L214.027,53.780L212.509,53.893L211.700,53.356L210.622,53.322L210.391,53.737L209.700,53.856L208.733,53.323L207.641,53.341L207.049,52.346L206.318,51.792L206.805,51.014L206.171,50.536L207.280,49.580L208.820,49.540L209.240,48.780L211.146,48.912L212.348,48.264L213.513,47.981L215.168,47.960L216.913,48.664L218.348,49.051L219.513,48.897L220.373,48.986L221.554,48.464L221.703,48.037L221.453,47.355L220.875,46.986L220.321,46.871L219.955,46.565L218.680,45.720L217.539,45.343L216.675,44.755L217.403,44.596L218.233,43.759L217.674,43.363L219.148,42.955L219.121,42.737L218.224,42.898L217.425,42.978L216.760,43.301L215.824,43.354L214.962,43.727L215.021,44.349L215.510,44.590L216.530,44.530L216.335,44.887L215.240,45.060L213.883,45.638L213.326,45.435L213.547,44.965L212.454,44.672L212.631,44.481L213.588,44.148L213.299,43.919L211.744,43.667L211.675,43.294L210.749,43.417L210.378,43.968L209.603,44.707L209.627,44.964L209.142,45.180L208.838,45.086L208.558,46.292L208.039,46.707L207.674,47.422L207.997,47.992L208.115,48.377L208.989,48.700L208.807,48.945L207.619,49.000L207.193,49.309L206.358,49.848L206.043,49.382L206.057,49.176L205.448,49.148L204.926,49.053L203.715,49.313L204.408,49.875L203.900,50.038L203.343,50.039L202.814,49.524L202.626,49.743L202.850,50.341L203.350,50.810L202.973,51.029L203.530,51.490L204.025,51.780L204.040,52.345L203.115,52.080L203.410,52.590L202.775,52.695L203.154,53.578L202.490,53.590L201.670,53.155L201.295,52.355L201.120,51.690L200.730,51.230L200.218,50.660L200.150,50.375L199.980,50.305L199.960,50.085L199.406,49.749L199.319,49.273L199.404,48.591L199.540,48.280L199.372,48.122L199.162,48.045L198.882,47.719L198.450,47.520L197.510,47.150L196.930,46.790L196.016,46.493L195.174,45.757L195.376,45.682L194.920,45.261L194.902,44.924L194.259,44.766L193.952,45.198L193.657,44.863L193.680,44.516L193.715,44.500L193.938,44.409L193.142,44.263L192.329,44.618L192.384,45.115L192.261,45.399L192.589,45.909L193.527,46.412L194.030,47.239L195.143,48.045L195.926,48.039L196.170,48.260L195.889,48.459L196.785,48.820L197.519,49.123L198.377,49.644L198.480,49.831L198.294,50.189L197.739,49.722L196.870,49.558L196.449,50.205L197.172,50.575L197.053,51.097L196.635,51.156L196.101,52.014L195.684,52.091L195.688,51.785L195.892,51.249L196.109,51.036L195.719,50.456L195.414,49.952L194.998,49.827L194.703,49.395L194.061,49.214L193.628,48.812L192.888,48.747L192.107,48.295L191.192,47.644L190.512,47.068L190.200,46.080L189.703,45.964L188.889,45.634L188.429,45.769L187.851,46.233L187.435,46.306L186.529,46.871L184.557,46.600L183.101,46.925L182.986,47.527L183.039,48.108L182.092,48.774L180.810,48.985L180.721,49.322L180.107,49.876L179.721,50.690L180.111,51.261L179.533,51.708L179.317,52.358L178.562,52.557L177.854,53.326L176.584,53.341L175.631,53.322L175.005,53.675L174.623,54.053L174.134,53.970L173.763,53.632L173.480,53.057L172.546,52.902L172.144,53.162L171.617,53.021L171.101,53.131L171.254,52.349L171.160,51.734L170.713,51.641L170.474,51.263L170.553,50.608L170.952,50.245L171.023,49.841L171.231,49.239L171.209,48.816L171.009,48.456L170.965,48.119L171.016,47.407L170.607,46.973L172.022,46.252L173.245,46.432L174.588,46.426L175.652,46.596L176.482,46.544L178.099,46.577L178.616,45.977L178.806,43.985L177.774,42.935L177.037,42.430L175.508,42.045L175.408,41.316L176.704,41.098L178.383,41.356L178.067,40.224L179.011,40.653L181.339,39.873L181.639,39.053L182.513,38.852L183.315,38.654L183.830,38.380L184.706,36.908L186.074,36.490L186.905,36.518L187.101,36.306L187.936,36.252L188.122,36.472L188.801,35.979L188.572,35.604L188.526,35.037L188.120,34.482L188.090,33.460L188.257,33.190L188.544,32.890L189.424,32.828L189.776,32.552L190.580,32.270L190.546,32.784L190.250,33.110L190.370,33.390L190.912,33.541L190.668,33.919L190.370,33.810L189.650,34.530L189.922,35.017L189.940,35.403L190.950,35.636L190.940,35.991L191.956,35.804L192.518,35.529L193.648,35.925L194.120,36.243L194.803,35.949L196.364,35.487L197.623,35.148L198.621,35.317L198.696,35.561L199.661,35.574L199.888,35.134L201.268,34.810L201.056,33.969L201.091,33.216L201.582,32.588L202.524,32.247L203.318,32.994L204.121,32.974L204.313,32.206L204.429,31.617L204.061,31.742L203.427,31.387L203.340,30.813L204.604,30.534L205.864,30.389L206.949,30.554L207.981,30.524L209.118,29.972L208.070,29.497L206.255,29.576L204.497,29.943L202.870,30.154L202.291,29.608L201.322,29.280L201.545,28.295L201.059,27.393L201.536,26.810L202.443,26.182L204.731,25.098L205.398,24.888L205.294,24.466L203.904,23.993L202.183,24.276L201.214,24.974L201.370,25.586L199.779,26.390L197.848,27.250L197.120,28.659L197.831,29.363L198.788,29.918L197.869,31.046L196.829,31.280L196.448,32.959L195.880,33.896L194.667,33.799L194.101,34.592L192.943,34.638L192.625,33.693L191.788,32.558L191.027,31.144L190.357,30.530L188.382,31.687L187.049,31.921L185.666,31.412L185.308,30.337L184.992,28.029L185.913,27.385L188.554,26.546L190.528,25.514L192.358,24.120L194.761,22.189L196.436,21.437L199.184,20.182L201.378,19.745L203.024,19.798L204.547,18.969L206.370,19.014L208.166,18.815L211.294,19.546L210.005,19.814L211.101,20.442L212.133,20.094L213.776,20.698L216.514,20.937L220.292,22.068L221.060,22.543L221.126,23.208L220.016,23.734L218.383,24.000L213.919,23.240L213.185,23.367L214.815,24.100L214.944,25.586L216.231,25.891L217.013,26.150L217.142,25.665L216.518,25.220L217.176,24.857L219.594,25.479L220.436,25.235L219.763,24.503L222.093,23.524L223.016,23.581L223.950,23.931L224.532,23.244L223.698,22.648L224.188,22.049L223.453,21.429L226.250,21.750L226.821,22.310L225.555,22.433L225.562,22.990L226.349,23.332L227.894,23.115L228.139,22.477L230.228,22.001L233.718,21.143L234.472,21.192L233.486,21.799L234.726,21.903L235.443,21.561L237.317,21.534L238.802,21.119L239.942,21.721L241.078,21.059L240.030,20.480L240.550,20.150L243.504,20.453L244.888,20.765L248.512,21.908L249.181,21.384L248.164,20.856L248.135,20.643L246.930,20.545L247.260,20.071L246.725,19.291L246.695,18.971L248.540,18.065L249.196,17.156L249.940,16.960L252.588,17.224L252.796,17.780L251.848,18.591L252.470,18.910L252.792,19.609L252.565,20.979L253.668,21.592L253.239,22.260L251.280,23.680L252.423,23.827L252.821,23.467L253.921,23.211L254.187,22.716L255.052,22.240L254.469,21.671L254.936,21.011L253.842,20.929L253.602,20.372L254.400,19.368L253.101,18.553L254.891,17.879L254.659,17.168L255.158,17.145L255.683,17.700L255.289,18.664L256.359,18.847L255.903,18.126L257.577,17.733L259.652,17.680L261.500,18.250L260.611,17.417L260.511,16.352L262.250,16.150L264.655,16.194L266.822,16.063L266.010,15.540L267.167,14.883L268.316,14.856L270.260,14.360L272.901,14.227L273.234,13.953L275.860,13.860L276.678,14.084L278.922,13.553L280.760,13.570L281.035,13.138L281.991,12.713L284.352,12.302L286.067,12.626L284.705,12.872L286.970,13.026ZM229.110,48.718L229.619,49.427L230.085,49.474L230.393,49.743L229.569,49.824L229.395,50.601L229.223,50.951L228.857,51.185L228.883,51.680L229.200,52.417L230.148,52.625L230.842,53.127L232.264,53.300L233.826,53.035L233.922,52.801L233.735,52.094L233.881,51.048L233.101,50.709L233.358,50.025L232.694,49.966L232.915,49.123L233.858,49.369L234.737,49.049L234.008,48.449L233.722,47.877L232.917,48.132L232.815,48.865L232.503,48.217L232.446,47.973L232.692,47.556L232.502,47.208L231.343,46.867L230.891,45.969L230.339,45.716L230.306,45.390L231.279,45.485L231.317,44.754L232.167,44.591L233.041,44.741L233.221,43.765L233.043,43.147L232.042,43.195L231.192,42.951L230.034,43.391L229.101,43.601L228.646,44.194L227.676,44.359L226.682,45.391L227.591,46.340L227.492,47.013L228.584,48.191L229.110,48.718Z M86.160,12.480L85.704,12.509L83.830,12.445L83.564,12.165L85.577,12.180L86.279,12.366L86.160,12.480Z M69.813,12.303L67.949,12.591L66.466,12.268L67.275,11.949L68.736,11.847L70.146,12.004L69.813,12.303Z M204.724,12.146L202.490,12.555L200.726,12.323L201.416,12.065L200.812,11.745L202.884,11.545L203.281,11.920L204.724,12.146Z M70.337,11.398L69.119,11.593L67.458,11.592L67.474,11.449L68.500,11.150L69.036,11.196L70.337,11.398Z M84.170,11.943L82.690,12.149L81.876,11.917L81.447,11.542L81.368,11.128L82.663,11.168L83.246,11.234L84.441,11.582L84.170,11.943Z M79.940,11.675L80.329,12.092L78.696,11.981L77.050,11.657L74.824,11.620L75.790,11.323L74.580,11.082L74.508,10.698L76.471,10.835L79.175,11.200L79.940,11.675Z M285.075,11.693L279.438,12.079L281.265,10.766L282.086,10.654L282.838,10.719L285.372,11.287L285.075,11.693Z M198.252,10.298L201.544,11.044L199.027,11.437L198.472,12.173L197.594,12.362L197.118,13.191L195.913,13.230L193.763,12.620L194.670,12.264L193.171,11.975L191.222,11.131L190.445,10.348L193.171,9.990L193.719,10.340L195.143,10.326L195.523,9.984L196.991,9.949L198.252,10.298Z M205.448,9.593L207.408,9.944L205.925,10.482L203.024,10.600L200.075,10.433L199.897,10.158L198.462,10.140L197.368,9.681L200.456,9.402L201.908,9.642L202.919,9.343L205.448,9.593Z M231.136,9.453L229.794,9.585L228.894,9.660L228.755,9.825L227.586,9.990L226.503,9.753L227.072,9.441L224.847,9.410L226.799,9.228L228.318,9.216L228.523,9.485L229.097,9.246L230.040,9.081L231.523,9.300L231.136,9.453Z M279.940,11.119L277.758,11.244L274.973,10.955L273.313,10.573L272.545,9.856L271.181,9.659L273.778,8.975L275.941,8.750L277.884,9.253L280.187,10.220L279.940,11.119Z M92.980,10.340L94.186,10.663L92.812,10.961L90.965,11.713L89.196,11.785L87.123,11.657L86.049,11.249L86.064,10.886L86.855,10.620L85.026,10.628L83.924,10.295L83.290,9.842L83.984,9.398L84.677,9.093L85.702,9.023L85.265,8.794L87.590,8.743L88.867,9.277L90.550,9.491L92.190,9.680L92.980,10.340Z M111.500,6.894L114.173,6.972L116.320,7.100L118.150,7.371L118.106,7.638L115.666,8.072L113.247,8.275L112.342,8.499L114.520,8.493L112.160,9.100L110.530,9.383L108.820,10.200L106.757,10.366L106.120,10.570L103.092,10.677L104.471,10.802L103.780,10.981L104.607,11.474L103.656,11.817L102.111,12.100L101.637,12.491L100.240,12.790L100.380,13.017L102.089,12.978L102.111,13.222L99.439,13.822L96.826,13.546L93.888,13.701L92.400,13.580L90.509,13.528L90.384,13.048L92.233,12.822L91.740,12.100L92.350,12.030L95.024,12.461L93.660,11.820L92.038,11.628L92.848,11.241L94.621,11.003L94.905,10.655L93.493,10.264L93.068,9.749L95.802,9.792L96.591,9.900L98.152,9.536L95.900,9.420L92.401,9.484L90.633,9.144L89.800,8.740L88.632,8.447L88.413,8.106L89.900,7.915L91.068,7.882L93.030,7.720L94.500,7.348L95.740,7.400L96.820,7.680L97.580,7.140L98.900,6.980L100.693,6.869L103.750,6.828L104.281,6.936L107.168,6.767L109.334,6.830L111.500,6.894Z M152.900,6.480L159.155,7.273L157.308,7.658L153.482,7.702L148.100,7.800L148.604,7.978L152.143,7.868L155.156,8.213L157.097,7.907L157.928,8.266L156.830,8.847L159.376,8.475L164.232,8.088L167.230,8.281L167.791,8.708L163.715,9.420L163.150,9.650L159.954,9.823L162.270,9.871L161.100,10.600L160.295,11.249L160.326,12.361L161.527,13.014L159.965,13.056L158.321,13.372L160.166,13.902L160.401,14.752L159.332,14.844L160.627,15.704L158.406,15.776L159.565,16.183L159.238,16.536L157.828,16.690L156.434,16.693L157.687,17.371L157.700,17.816L155.722,17.402L155.207,17.670L156.557,17.920L157.867,18.531L158.246,19.336L156.464,19.529L155.693,19.144L154.457,18.569L154.799,19.248L153.637,19.774L156.273,19.816L157.651,19.871L154.971,20.741L152.253,21.530L149.326,21.875L148.223,21.879L147.189,22.265L145.798,23.320L143.647,24.021L142.956,24.062L141.625,24.308L140.188,24.542L139.331,25.160L139.317,25.861L138.811,26.518L137.181,27.318L137.583,28.099L137.134,28.926L136.622,29.902L135.213,29.963L133.736,29.147L131.737,29.142L130.767,28.593L130.100,27.617L128.367,26.373L127.860,25.722L127.723,24.823L126.338,23.900L126.698,23.163L126.031,22.811L127.020,21.642L128.525,21.270L128.920,20.852L129.129,20.071L127.986,20.425L127.442,20.574L126.544,20.716L125.317,20.390L125.250,19.711L125.641,19.179L126.569,19.164L128.610,19.430L126.891,18.795L125.996,18.453L125.000,18.593L124.165,18.346L125.282,17.414L124.674,17.041L123.880,16.350L122.676,15.290L121.403,14.901L121.415,14.483L118.731,13.898L116.608,13.825L113.936,13.865L111.496,13.939L110.335,13.620L108.597,12.991L111.223,12.677L113.236,12.624L108.957,12.364L106.703,11.956L106.841,11.567L110.627,11.086L114.289,10.606L114.676,10.242L111.977,9.883L112.849,9.484L116.311,8.786L117.766,8.679L117.349,8.230L119.718,7.966L122.793,7.809L125.866,7.800L126.957,8.112L129.609,7.561L131.996,7.935L133.400,8.014L135.477,8.339L133.099,7.800L133.236,7.372L136.594,6.775L140.102,6.820L141.378,6.451L144.912,6.355L152.900,6.480Z"/>
</svg>
